<svg fill="#898D89" height="18" viewBox="0 0 24 24" width="18" transform="translate(0,2)"  xmlns="http://www.w3.org/2000/svg">

 <g>
  <title>background</title>
  <rect fill="none" id="canvas_background" height="20" width="22" y="-1" x="-1"/>
 </g>
 <g>
  <title>Layer 1</title>
  <path stroke="null" id="mail" fill="#333333" d="m16.71941,4l-13.47378,0c-1.240149,0 -2.24563,0.820437 -2.24563,1.831333l0,5.951831c0,1.011353 1.005481,1.831333 2.24563,1.831333l13.47378,0c1.240149,0 2.24563,-0.819979 2.24563,-1.831333l0,-5.951831c0,-1.010896 -1.005481,-1.831333 -2.24563,-1.831333zm-14.596595,2.403624l3.929291,2.403624l-3.929291,2.403624l0,-4.807248zm15.71941,5.37954c0,0.505448 -0.504144,0.915666 -1.122815,0.915666l-13.47378,0c-0.619232,0 -1.122815,-0.410219 -1.122815,-0.915666l4.396944,-2.68977l2.452228,1.500319c0.29923,0.182218 0.654601,0.2747 1.010534,0.2747c0.355371,0 0.710742,-0.092024 1.009972,-0.2747l2.452789,-1.500319l4.396944,2.68977l0,0zm0,-0.572291l-3.929853,-2.403624l3.929853,-2.403624l0,4.807248zm-7.186577,-0.983426c-0.195931,0.119952 -0.428354,0.183133 -0.673128,0.183133c-0.244774,0 -0.477758,-0.063639 -0.673689,-0.183133l-2.32142,-1.420198l-0.467652,-0.286146l-4.396944,-2.689312l0,-0.000458c0,-0.50499 0.503583,-0.915666 1.122815,-0.915666l13.47378,0c0.618671,0 1.122815,0.410676 1.122815,0.915666l-7.186577,4.396114z"/>
 </g>
</svg>